<svg xmlns="http://www.w3.org/2000/svg" width="127" height="30" viewBox="0 0 127 30">
  <path id="Logo" d="M103.491,15v7.052H96.2V45H87.519V22.052H80.224V15Zm-45.86,0V44.989H48.9V15ZM74.8,15V44.989H66.073V15Zm-52.567.354c6.525-.751,11.515-.258,15.686,2.414a7.878,7.878,0,0,1,3.66,7.153H33.241a3.1,3.1,0,0,0-1.47-2.853c-.965-.539-2.182-1.086-5.23-1.046-1.7.022-3.984.227-5.261,1.514s-1.141,3.246.681,3.855c2.768.926,5.156.476,10.459.876a16.106,16.106,0,0,1,4.992,1.091A7.062,7.062,0,0,1,41.95,35.4,8.327,8.327,0,0,1,37.3,42.986a23.047,23.047,0,0,1-5.864,1.692,30.893,30.893,0,0,1-9.887-.294A14.326,14.326,0,0,1,14.265,40.4,9.714,9.714,0,0,1,12,35.106h0l8.486-.07c.108.932.674,2.816,3.589,3.548a16.063,16.063,0,0,0,6.639,0c.579-.13,3.315-1.012,3.136-2.933-.155-1.665-1.522-2.141-2.949-2.481a32.5,32.5,0,0,0-6.255-.578c-4.008-.163-9.744-1.279-11.693-5.279a7.319,7.319,0,0,1,1.4-8.253A12.945,12.945,0,0,1,22.234,15.354Zm100.956-.161a22.694,22.694,0,0,1,7.23,1.026A12.441,12.441,0,0,1,135.3,19.2a11.536,11.536,0,0,1,2.828,4.679A20.94,20.94,0,0,1,139,30.16h0V44.231h-8.034V40.961a6.828,6.828,0,0,1-1.414,1.314,13.834,13.834,0,0,1-3.47,1.795,16.759,16.759,0,0,1-4.05.737,18.047,18.047,0,0,1-7.423-1.57,14.346,14.346,0,0,1-2.731-1.7,11.6,11.6,0,0,1-2.378-2.6,14.406,14.406,0,0,1-1.7-3.75,18.369,18.369,0,0,1-.644-5.1,16.057,16.057,0,0,1,.708-5.063,13.286,13.286,0,0,1,1.767-3.782,11.312,11.312,0,0,1,2.571-2.66,16.519,16.519,0,0,1,2.957-1.731A20.844,20.844,0,0,1,123.189,15.192Zm0,6.6a8.048,8.048,0,0,0-4.018.833,6.215,6.215,0,0,0-2.345,2.083,6.912,6.912,0,0,0-1.061,2.725,12.545,12.545,0,0,0,0,5.352,7.307,7.307,0,0,0,1.061,2.724,6.494,6.494,0,0,0,2.345,2.083,10.1,10.1,0,0,0,8.034,0,7.189,7.189,0,0,0,2.378-2.083,7.355,7.355,0,0,0,1.092-2.724,13.694,13.694,0,0,0,.29-2.693,18.7,18.7,0,0,0-.257-2.981,6.979,6.979,0,0,0-1-2.692,5.442,5.442,0,0,0-2.345-1.923A10.007,10.007,0,0,0,123.189,21.8Z" transform="translate(-12 -15)" fill="#1f2337" fill-rule="evenodd"/>
</svg>
